<svg width="19" height="18" viewBox="0 0 19 18" fill="none" xmlns="http://www.w3.org/2000/svg">
<path fill-rule="evenodd" clip-rule="evenodd" d="M9.31445 18C14.285 18 18.3145 13.9706 18.3145 9C18.3145 4.02944 14.285 0 9.31445 0C4.34389 0 0.314453 4.02944 0.314453 9C0.314453 13.9706 4.34389 18 9.31445 18ZM14.0827 6.64018C14.4362 6.21591 14.3789 5.58534 13.9546 5.23178C13.5304 4.87821 12.8998 4.93554 12.5462 5.35982L8.94828 9.67736C8.60156 10.0934 8.40665 10.3238 8.25103 10.4653L8.24508 10.4707L8.23867 10.4659C8.07088 10.339 7.85591 10.1272 7.47295 9.74428L6.02156 8.29289C5.63104 7.90237 4.99787 7.90237 4.60735 8.29289C4.21682 8.68342 4.21682 9.31658 4.60735 9.70711L6.05874 11.1585L6.09956 11.1993L6.09957 11.1993C6.42606 11.526 6.74015 11.8402 7.03239 12.0611C7.35976 12.3087 7.78847 12.5415 8.33788 12.5165C8.88729 12.4916 9.29318 12.221 9.59679 11.9448C9.86782 11.6983 10.1522 11.3569 10.4478 11.0021L10.4478 11.0021L10.4847 10.9577L14.0827 6.64018Z" fill="#07A537"/>
</svg>
