<svg width="19" height="18" viewBox="0 0 19 18" fill="none" xmlns="http://www.w3.org/2000/svg">
<path fill-rule="evenodd" clip-rule="evenodd" d="M18.3145 9C18.3145 13.9706 14.285 18 9.31445 18C4.34389 18 0.314453 13.9706 0.314453 9C0.314453 4.02944 4.34389 0 9.31445 0C14.285 0 18.3145 4.02944 18.3145 9ZM4.60735 13.7071C4.21682 13.3166 4.21682 12.6834 4.60735 12.2929L7.90024 9L4.60735 5.70711C4.21682 5.31658 4.21682 4.68342 4.60735 4.29289C4.99787 3.90237 5.63103 3.90237 6.02156 4.29289L9.31445 7.58579L12.6073 4.29289C12.9979 3.90237 13.631 3.90237 14.0216 4.29289C14.4121 4.68342 14.4121 5.31658 14.0216 5.70711L10.7287 9L14.0216 12.2929C14.4121 12.6834 14.4121 13.3166 14.0216 13.7071C13.631 14.0976 12.9979 14.0976 12.6073 13.7071L9.31445 10.4142L6.02156 13.7071C5.63104 14.0976 4.99787 14.0976 4.60735 13.7071Z" fill="#EA4335"/>
</svg>
