<svg width="33" height="33" viewBox="0 0 33 33" fill="none" xmlns="http://www.w3.org/2000/svg">
<circle cx="16.5" cy="16.5" r="16.5" fill="white"/>
<path d="M8.83169 18.4445C8.30298 17.4941 8.03862 17.0188 8.03862 16.5C8.03862 15.9812 8.30298 15.5059 8.83169 14.5555L9.87707 12.6763L10.9819 10.8313C11.5406 9.8982 11.82 9.43165 12.2693 9.17223C12.7186 8.91281 13.2624 8.90414 14.3498 8.88679L16.5 8.8525L18.6502 8.88679C19.7376 8.90414 20.2814 8.91281 20.7307 9.17223C21.18 9.43165 21.4594 9.8982 22.0181 10.8313L23.1229 12.6762L24.1683 14.5555C24.697 15.5059 24.9614 15.9812 24.9614 16.5C24.9614 17.0188 24.697 17.4941 24.1683 18.4445L23.1229 20.3237L22.0181 22.1687C21.4594 23.1018 21.18 23.5683 20.7307 23.8278C20.2814 24.0872 19.7376 24.0959 18.6502 24.1132L16.5 24.1475L14.3498 24.1132C13.2624 24.0959 12.7186 24.0872 12.2693 23.8278C11.82 23.5683 11.5406 23.1018 10.9819 22.1687L9.87707 20.3237L8.83169 18.4445Z" stroke="#5A5A5A" stroke-opacity="0.75" stroke-width="2"/>
<circle cx="16.5" cy="16.5" r="2.625" stroke="#5A5A5A" stroke-opacity="0.75" stroke-width="2"/>
</svg>
