<svg width="17" height="18" viewBox="0 0 17 18" fill="none" xmlns="http://www.w3.org/2000/svg">
<path fill-rule="evenodd" clip-rule="evenodd" d="M8.59123 12.5832C9.74908 11.9307 12.9513 9.81723 12.9513 6.4C12.9513 3.65085 10.815 1.42223 8.17974 1.42223C5.54449 1.42223 3.4082 3.65085 3.4082 6.4C3.4082 9.81723 6.61039 11.9307 7.76825 12.5832C8.02615 12.7285 8.33333 12.7285 8.59123 12.5832ZM8.17974 8.53334C9.30913 8.53334 10.2247 7.57821 10.2247 6.4C10.2247 5.2218 9.30913 4.26667 8.17974 4.26667C7.05035 4.26667 6.13479 5.2218 6.13479 6.4C6.13479 7.57821 7.05035 8.53334 8.17974 8.53334Z" fill="#868FA0" fill-opacity="0.4"/>
<path d="M12.312 11.7333C12.7308 12.0576 12.9513 12.4255 12.9513 12.8C12.9513 13.1745 12.7308 13.5424 12.312 13.8667C11.8932 14.191 11.2909 14.4603 10.5655 14.6475C9.84014 14.8348 9.01732 14.9333 8.17974 14.9333C7.34216 14.9333 6.51934 14.8348 5.79397 14.6475C5.06861 14.4603 4.46626 14.191 4.04747 13.8667C3.62868 13.5424 3.4082 13.1745 3.4082 12.8C3.4082 12.4255 3.62868 12.0576 4.04747 11.7333" stroke="#868FA0" stroke-opacity="0.4" stroke-width="2" stroke-linecap="round"/>
</svg>
