<svg width="24" height="24" viewBox="0 0 24 24" fill="none" xmlns="http://www.w3.org/2000/svg">
<path d="M6 20C5.71667 20 5.47934 19.904 5.288 19.712C5.09667 19.52 5.00067 19.2827 5 19C4.99934 18.7173 5.09534 18.48 5.288 18.288C5.48067 18.096 5.718 18 6 18H6.6L8.575 11.425C8.70834 10.9917 8.95434 10.646 9.313 10.388C9.67167 10.13 10.0673 10.0007 10.5 10H13.5C13.9333 10 14.3293 10.1293 14.688 10.388C15.0467 10.6467 15.2923 10.9923 15.425 11.425L17.4 18H18C18.2833 18 18.521 18.096 18.713 18.288C18.905 18.48 19.0007 18.7173 19 19C18.9993 19.2827 18.9033 19.5203 18.712 19.713C18.5207 19.9057 18.2833 20.0013 18 20H6ZM11 7V4C11 3.71667 11.096 3.47934 11.288 3.288C11.48 3.09667 11.7173 3.00067 12 3C12.2827 2.99934 12.5203 3.09534 12.713 3.288C12.9057 3.48067 13.0013 3.718 13 4V7C13 7.28334 12.904 7.521 12.712 7.713C12.52 7.905 12.2827 8.00067 12 8C11.7173 7.99934 11.48 7.90334 11.288 7.712C11.096 7.52067 11 7.28334 11 7ZM16.25 8.35L18.375 6.225C18.5583 6.04167 18.7877 5.94567 19.063 5.937C19.3383 5.92834 19.5757 6.02434 19.775 6.225C19.9583 6.40834 20.05 6.64167 20.05 6.925C20.05 7.20834 19.9583 7.44167 19.775 7.625L17.65 9.775C17.45 9.975 17.2167 10.075 16.95 10.075C16.6833 10.075 16.45 9.975 16.25 9.775C16.05 9.575 15.95 9.33767 15.95 9.063C15.95 8.78834 16.05 8.55067 16.25 8.35ZM19 13H22C22.2833 13 22.521 13.096 22.713 13.288C22.905 13.48 23.0007 13.7173 23 14C22.9993 14.2827 22.9033 14.5203 22.712 14.713C22.5207 14.9057 22.2833 15.0013 22 15H19C18.7167 15 18.4793 14.904 18.288 14.712C18.0967 14.52 18.0007 14.2827 18 14C17.9993 13.7173 18.0953 13.48 18.288 13.288C18.4807 13.096 18.718 13 19 13ZM6.35 9.75L4.225 7.625C4.04167 7.44167 3.946 7.21267 3.938 6.938C3.93 6.66334 4.02567 6.42567 4.225 6.225C4.40834 6.04167 4.64167 5.95 4.925 5.95C5.20834 5.95 5.44167 6.04167 5.625 6.225L7.775 8.35C7.975 8.55 8.075 8.78334 8.075 9.05C8.075 9.31667 7.975 9.55 7.775 9.75C7.575 9.95 7.33767 10.05 7.063 10.05C6.78834 10.05 6.55067 9.95 6.35 9.75ZM2 15C1.71667 15 1.47934 14.904 1.288 14.712C1.09667 14.52 1.00067 14.2827 1 14C0.999337 13.7173 1.09534 13.48 1.288 13.288C1.48067 13.096 1.718 13 2 13H5C5.28334 13 5.521 13.096 5.713 13.288C5.905 13.48 6.00067 13.7173 6 14C5.99934 14.2827 5.90334 14.5203 5.712 14.713C5.52067 14.9057 5.28334 15.0013 5 15H2Z" fill="#EA4335"/>
</svg>
