<svg width="26" height="25" viewBox="0 0 26 25" fill="none" xmlns="http://www.w3.org/2000/svg">
<path d="M1.92002 4.81151V4.81151C1.92002 4.60332 1.92002 4.49923 1.92519 4.41131C2.01441 2.893 3.22572 1.68169 4.74403 1.59247C4.83195 1.5873 4.93604 1.5873 5.14423 1.5873L21.9268 1.5873C22.3221 1.5873 22.5198 1.5873 22.6552 1.6928C22.6878 1.71818 22.7172 1.74751 22.7425 1.7801C22.848 1.91558 22.848 2.11322 22.848 2.5085V2.5085C22.848 4.88017 22.848 6.06601 22.215 6.8789C22.0627 7.07447 21.8868 7.25041 21.6912 7.4027C20.8783 8.03571 19.6925 8.03571 17.3208 8.03571H16.6927M1.92002 4.81151V4.81151C1.92002 5.01969 1.92002 5.12378 1.92519 5.2117C2.01441 6.73001 3.22572 7.94132 4.74403 8.03055C4.83195 8.03571 4.93604 8.03571 5.14423 8.03571L22.0791 8.03571C23.0219 8.03571 23.4933 8.03571 23.7862 8.3286C24.0791 8.6215 24.0791 9.0929 24.0791 10.0357L24.0791 13.1944M1.92002 4.81151L1.92002 19.5119C1.92002 21.3975 1.92002 22.3403 2.50581 22.9261C3.09159 23.5119 4.0344 23.5119 5.92002 23.5119L22.0791 23.5119C23.0219 23.5119 23.4933 23.5119 23.7862 23.219C24.0791 22.9261 24.0791 22.4547 24.0791 21.5119L24.0791 18.3532M24.0791 18.3532H18.6927C17.7499 18.3532 17.2785 18.3532 16.9856 18.0603C16.6927 17.7674 16.6927 17.296 16.6927 16.3532V15.1944C16.6927 14.2516 16.6927 13.7802 16.9856 13.4873C17.2785 13.1944 17.7499 13.1944 18.6927 13.1944L24.0791 13.1944M24.0791 18.3532L24.0791 13.1944" stroke="#7395CB" stroke-width="2"/>
</svg>
