<svg width="33" height="33" viewBox="0 0 33 33" fill="none" xmlns="http://www.w3.org/2000/svg">
<circle cx="16.5" cy="16.5" r="16.5" fill="white"/>
<path d="M10.3128 22.6872C11.5365 23.9109 13.0956 24.7443 14.793 25.0819C16.4903 25.4195 18.2496 25.2462 19.8485 24.5839C21.4473 23.9217 22.8139 22.8002 23.7754 21.3612C24.7368 19.9223 25.25 18.2306 25.25 16.5C25.25 14.7694 24.7368 13.0777 23.7754 11.6388C22.8139 10.1998 21.4473 9.07832 19.8485 8.41605C18.2496 7.75379 16.4903 7.58051 14.793 7.91813C13.0956 8.25575 11.5365 9.08911 10.3128 10.3128" stroke="#5A5A5A" stroke-opacity="0.75" stroke-width="2"/>
<path d="M19.125 16.5L19.9059 15.8753L20.4056 16.5L19.9059 17.1247L19.125 16.5ZM8.625 17.5C8.07271 17.5 7.625 17.0523 7.625 16.5C7.625 15.9477 8.07271 15.5 8.625 15.5V17.5ZM16.4059 11.5003L19.9059 15.8753L18.3441 17.1247L14.8441 12.7497L16.4059 11.5003ZM19.9059 17.1247L16.4059 21.4997L14.8441 20.2503L18.3441 15.8753L19.9059 17.1247ZM19.125 17.5H8.625V15.5H19.125V17.5Z" fill="#5A5A5A" fill-opacity="0.75"/>
</svg>
